<?xml version="1.0" standalone="no"?>
<!DOCTYPE svg PUBLIC "-//W3C//DTD SVG 20010904//EN"
 "http://www.w3.org/TR/2001/REC-SVG-20010904/DTD/svg10.dtd">
<svg version="1.0" xmlns="http://www.w3.org/2000/svg"
 width="185.000000pt" height="208.000000pt" viewBox="0 0 185.000000 208.000000"
 preserveAspectRatio="xMidYMid meet">
<metadata>
Created by potrace 1.15, written by Peter Selinger 2001-2017
</metadata>
<g transform="translate(0.000000,208.000000) scale(0.100000,-0.100000)"
fill="#000000" stroke="none">
<path d="M946 2069 c-37 -5 -102 -21 -145 -35 -555 -189 -805 -804 -552 -1359
31 -66 36 -86 29 -115 -4 -19 -19 -91 -34 -160 -23 -110 -35 -171 -59 -308 -5
-27 -3 -32 7 -26 21 14 40 13 54 0 10 -11 23 -10 71 6 32 10 67 23 78 27 32
15 246 89 292 102 37 11 51 9 130 -17 85 -28 95 -29 283 -29 208 0 231 4 390
67 85 35 230 124 298 185 88 78 87 81 -55 233 -65 69 -121 127 -126 129 -5 2
-23 -10 -40 -26 -75 -69 -194 -134 -298 -163 -226 -62 -443 24 -564 225 -60
100 -80 181 -79 320 0 97 5 132 23 185 52 149 139 252 270 317 70 35 83 38
176 41 108 4 195 -12 269 -50 60 -30 192 -125 215 -153 10 -14 23 -25 27 -24
5 0 62 66 127 146 137 169 141 181 75 238 -231 198 -539 285 -862 244z"/>
</g>
</svg>
